<?xml version="1.0" standalone="no"?>
<!DOCTYPE svg PUBLIC "-//W3C//DTD SVG 20010904//EN"
 "http://www.w3.org/TR/2001/REC-SVG-20010904/DTD/svg10.dtd">
<svg version="1.0" xmlns="http://www.w3.org/2000/svg"
 width="1280.000000pt" height="855.000000pt" viewBox="0 0 1280.000000 855.000000"
 preserveAspectRatio="xMidYMid meet">
<metadata>
Created by potrace 1.15, written by Peter Selinger 2001-2017
</metadata>
<g transform="translate(0.000000,855.000000) scale(0.100000,-0.100000)"
fill="black" stroke="none">
<path d="M9430 8546 c0 -2 27 -159 59 -350 l60 -346 -143 -402 c-399 -1120
-610 -1642 -908 -2238 -150 -300 -260 -498 -422 -758 -58 -93 -106 -174 -106
-180 0 -43 61 33 203 248 151 231 277 453 435 770 293 584 514 1127 887 2180
l133 375 -73 305 c-40 168 -72 306 -71 308 7 7 539 -634 548 -660 15 -44 3
-810 -16 -1043 -64 -762 -186 -1453 -362 -2060 -66 -225 -62 -206 -47 -212 7
-2 19 12 28 34 33 78 107 303 144 438 l38 139 69 18 c136 35 282 51 404 45
136 -7 216 -24 330 -67 l84 -33 -52 -23 c-115 -51 -186 -124 -222 -229 -22
-65 -45 -242 -37 -291 5 -32 4 -34 -22 -34 -100 0 -555 -46 -747 -76 -79 -13
-104 -20 -104 -32 0 -17 -24 -18 385 19 670 59 1299 23 1685 -98 812 -253
1216 -532 1112 -766 -104 -235 -622 -450 -1462 -608 -391 -74 -1409 -152
-2320 -179 -422 -12 -530 -19 -530 -30 0 -20 67 -23 470 -22 656 1 1289 33
1964 97 635 61 1339 244 1662 433 150 88 234 165 285 262 36 69 34 175 -6 254
-109 218 -521 442 -1171 636 -112 34 -242 59 -446 85 -46 6 -47 7 -37 33 13
34 -4 168 -32 249 -63 185 -235 354 -438 432 -132 50 -225 64 -401 58 -160 -5
-251 -23 -356 -67 -26 -11 -49 -19 -51 -16 -2 2 5 39 16 82 48 191 123 585
166 879 80 546 118 1141 100 1559 l-7 179 -327 353 c-277 300 -351 373 -351
350z m1354 -3545 c143 -99 239 -249 277 -437 11 -53 19 -98 17 -99 -2 -1 -48
1 -103 6 -55 4 -201 8 -324 9 -208 0 -223 1 -216 18 4 9 20 76 37 147 39 172
71 231 169 310 41 33 76 63 77 67 6 14 23 9 66 -21z"/>
<path d="M657 6080 c-27 -5 -79 -18 -115 -29 -106 -32 -249 -127 -238 -157 3
-7 150 -187 328 -401 618 -744 968 -1174 1131 -1388 95 -124 105 -141 92 -155
-21 -23 -19 -30 16 -83 l31 -47 -26 -21 c-57 -45 -80 -137 -52 -201 6 -13 4
-18 -9 -18 -55 0 27 -38 311 -146 175 -66 459 -175 629 -241 834 -325 1333
-471 1890 -552 528 -77 1137 -75 1632 4 51 8 96 15 100 15 45 0 -800 -450
-1275 -679 -511 -246 -1285 -593 -1333 -597 -29 -2 -236 -89 -1644 -692 -1186
-508 -1513 -655 -1507 -677 7 -25 92 -5 632 145 102 28 248 69 325 90 2639
730 4097 1216 5415 1807 152 68 157 70 260 76 154 9 491 -19 490 -42 0 -3 -19
-19 -42 -36 -58 -43 -122 -134 -150 -212 -32 -94 -32 -253 0 -368 41 -148 122
-325 148 -325 21 0 17 33 -21 154 -113 363 -95 540 71 703 75 74 73 74 189 18
122 -59 218 -155 256 -255 31 -83 24 -203 -17 -290 -57 -120 -188 -236 -333
-295 -136 -56 -220 -69 -421 -69 -212 0 -333 20 -561 94 -131 41 -159 47 -159
30 0 -13 152 -85 257 -119 177 -59 279 -75 493 -76 173 0 205 3 285 23 177 47
349 147 436 255 153 190 161 428 21 602 -134 167 -382 260 -724 272 l-157 6
152 72 c323 153 880 441 925 478 9 7 10 13 3 20 -7 7 -43 -6 -108 -38 -751
-367 -1154 -548 -1275 -575 -104 -23 -113 -27 -98 -45 11 -14 -80 -55 -495
-223 -1048 -423 -2056 -759 -3920 -1307 -330 -97 -791 -233 -1025 -302 -234
-69 -432 -127 -440 -130 -49 -12 31 21 1630 674 1653 675 2547 1089 3377 1565
280 160 631 381 647 407 19 30 -28 14 -130 -44 -76 -44 -121 -64 -134 -60 -10
3 -97 -1 -193 -9 -943 -83 -1663 -9 -2562 264 -201 62 -396 130 -900 315 -220
81 -481 174 -580 208 -99 33 -187 66 -195 73 -66 54 -100 94 -100 118 0 40 49
131 63 117 29 -29 84 0 72 39 -4 11 -2 20 4 20 20 0 11 27 -13 44 -14 8 -65
75 -115 148 -228 335 -587 775 -1232 1513 -164 187 -299 344 -300 350 -2 13
131 78 228 111 106 36 212 39 266 7 44 -27 57 -28 57 -9 0 25 -64 65 -120 76
-59 11 -74 11 -143 0z"/>
<path d="M840 5977 c0 -7 35 -42 78 -77 391 -327 766 -636 956 -789 588 -472
1034 -769 1511 -1007 l230 -114 835 69 c1288 108 1695 137 2475 176 61 4 287
10 503 14 216 5 396 11 399 15 4 3 1 12 -6 19 -17 17 -1009 16 -1341 -1 -591
-30 -1216 -75 -2200 -157 l-655 -55 -200 100 c-329 164 -709 399 -1080 669
-198 144 -430 325 -890 691 -369 294 -587 460 -604 460 -6 0 -11 -6 -11 -13z"/>
<path d="M3017 5113 c-9 -14 -66 -217 -92 -327 -19 -78 -24 -111 -16 -119 7
-7 14 -8 21 -1 11 11 79 216 106 322 l18 72 36 0 c44 0 311 -27 315 -32 2 -2
-7 -86 -21 -188 -55 -420 -72 -604 -54 -615 6 -4 16 -3 22 3 21 21 126 828
109 845 -7 7 -347 47 -408 47 -17 0 -34 -3 -36 -7z"/>
<path d="M12125 3999 c-27 -11 -126 -40 -220 -64 -194 -51 -239 -69 -266 -103
-44 -56 -4 -116 121 -181 l79 -42 193 97 c235 117 318 164 318 181 0 32 -80 4
-358 -127 l-153 -71 -42 25 c-64 39 -91 62 -83 74 7 12 45 26 221 82 140 44
268 106 273 133 5 22 -20 21 -83 -4z"/>
<path d="M10810 3822 c0 -16 70 -546 76 -575 l6 -27 171 2 172 3 -2 40 c-3 49
-48 274 -68 344 -11 34 -21 51 -32 51 -13 0 -15 -9 -9 -62 7 -58 48 -267 62
-312 6 -18 1 -19 -116 -13 -67 3 -124 7 -126 10 -3 2 -20 105 -39 228 -19 123
-38 236 -41 251 l-5 27 153 3 c128 3 153 5 153 18 0 13 -28 15 -177 18 -100 1
-178 -1 -178 -6z"/>
<path d="M10215 3503 c-27 -1 -135 -7 -240 -14 -206 -12 -429 -34 -445 -44 -5
-3 -10 -12 -10 -19 0 -21 110 -25 405 -15 348 11 666 34 783 55 37 7 51 22 31
35 -13 8 -401 10 -524 2z"/>
<path d="M1578 3402 c-412 -211 -1570 -842 -1575 -857 -3 -10 318 -136 345
-135 20 0 1025 425 1587 670 349 153 441 198 427 212 -12 12 -36 5 -222 -67
-257 -100 -1168 -475 -1680 -692 l-115 -49 -127 31 c-69 16 -129 32 -131 35
-3 3 179 102 405 220 883 461 1315 696 1311 715 -5 25 -44 10 -225 -83z"/>
<path d="M8446 3412 c-36 -9 -44 -27 -18 -41 58 -31 614 -43 644 -13 19 19 0
30 -72 42 -76 13 -511 22 -554 12z"/>
<path d="M7315 3350 c-225 -5 -516 -13 -645 -19 -365 -18 -411 -24 -382 -53
32 -32 1572 -10 1890 28 52 6 71 27 35 38 -38 10 -507 13 -898 6z"/>
<path d="M3881 3281 c-22 -14 -5 -28 41 -35 134 -19 611 -42 1173 -56 440 -12
645 -7 645 16 0 18 -19 22 -150 33 -432 37 -1668 68 -1709 42z"/>
</g>
<text fill="blue" x="100" y="302" font-size="225" font-weight="bold" font-style="italic" font-family="arial">Guided</text>
<text fill="blue" x="770" y="775" font-size="225" font-weight="bold" font-style="italic" font-family="arial">Tour</text>
</svg>
